# xmcd CD database file
#
# Track frame offsets:
#	150
#	18202
#	30382
#	44767
#	74517
#	96497
#	118955
#	141957
#	163175
#	173157
#
# Disc length: 2608 seconds
#
# Revision: 0
# Processed by: cddbd v1.5.1PL0 Copyright (c) Steve Scherf et al.
# Submitted via: CDex 1.51
#
DISCID=910a2e0a
DTITLE=nino trinca - nino trinca
DYEAR=2001
DGENRE=Big Band
TTITLE0=Le Cabaret Milan
TTITLE1=Ancora! Subito
TTITLE2=赤い砂漠
TTITLE3=日曜のお昼に
TTITLE4=A Roma
TTITLE5=さよなら君の笑顔
TTITLE6=One Sweet Day
TTITLE7=Venice
TTITLE8=The Absurd Standstill(Live)
TTITLE9=ずっと雨降り
EXTD=YEAR: 2001
EXTT0=
EXTT1=
EXTT2=
EXTT3=
EXTT4=
EXTT5=
EXTT6=
EXTT7=
EXTT8=
EXTT9=
PLAYORDER=
